<svg xmlns="http://www.w3.org/2000/svg" viewBox="0 0 256 256" fill="none">
  <defs>
    <linearGradient id="dropGrad" x1="128" y1="0" x2="128" y2="256" gradientUnits="userSpaceOnUse">
      <stop offset="0%" stop-color="#1D4ED8"/>
      <stop offset="50%" stop-color="#0EA5E9"/>
      <stop offset="100%" stop-color="#06B6D4"/>
    </linearGradient>
    <linearGradient id="shineGrad" x1="90" y1="60" x2="180" y2="200" gradientUnits="userSpaceOnUse">
      <stop offset="0%" stop-color="white" stop-opacity="0.35"/>
      <stop offset="100%" stop-color="white" stop-opacity="0"/>
    </linearGradient>
    <filter id="glow">
      <feGaussianBlur stdDeviation="3" result="blur"/>
      <feComposite in="SourceGraphic" in2="blur" operator="over"/>
    </filter>
  </defs>
  <!-- Water drop shape -->
  <path d="M128 16 C128 16 48 120 48 168 C48 211.7 84.3 248 128 248 C171.7 248 208 211.7 208 168 C208 120 128 16 128 16Z" 
        fill="url(#dropGrad)" filter="url(#glow)"/>
  <!-- Inner shine/reflection -->
  <path d="M128 48 C128 48 72 128 72 164 C72 196.4 97.6 224 128 224 C132 224 136 223.6 140 223 C116 218 96 196 96 168 C96 136 128 80 128 80 C128 80 120 96 116 116 C108 148 108 176 116 200 C100 190 88 174 88 156 C88 120 128 48 128 48Z" 
        fill="url(#shineGrad)"/>
</svg>